<svg xmlns="http://www.w3.org/2000/svg" width="1626.689" height="420.044" viewBox="0 0 1626.689 420.044">
  <path id="Tracé_38" data-name="Tracé 38" d="M0,52.438H18.876v348.2h51.39v-131.1H192.977V252.234H70.794V233.358H211.86v55.06H89.149v131.1H0Zm35.136,0H237.555v89.149h-131.1V122.711H218.673V71.321H53.492V385.961H35.136ZM70.273,86.527H202.419V105.4H89.149v92.819H211.86v19.4H70.273V86.527ZM307.561,51.917h54.013v333h-19.4V70.794H326.437V400.641H498.964V350.3H413.491V331.422H517.847v88.1H307.561V51.917Zm71.321,0h18.876V365.511h84.425v19.4h-103.3v-333ZM777.688,419.523q-47.981,0-91.244-25.168C628.761,361.32,593.1,300.489,593.1,235.46c0-32.514,8.387-62.927,25.168-91.771C651.3,87.054,713.18,51.4,777.681,51.4c31.987,0,62.927,8.387,91.771,24.648,57.682,33.562,92.292,95.968,92.292,159.416,0,31.987-8.387,61.879-24.648,90.724C903.535,383.866,842.7,419.53,777.681,419.53Zm0-349.777c-29.892,0-57.682,7.34-82.857,22.025-50.87,29.365-82.33,83.378-82.33,143.689,0,29.892,7.34,57.682,22.025,82.857,29.365,50.87,82.857,82.33,143.162,82.33a165.2,165.2,0,0,0,83.378-22.025c50.87-29.365,82.33-82.857,82.33-143.162a165.2,165.2,0,0,0-22.025-83.378c-29.365-50.87-84.952-82.33-143.689-82.33Zm0,314.114c-26.222,0-50.87-6.819-74.463-19.93-46.673-26.743-75.511-75.511-75.511-128.476a148.038,148.038,0,0,1,19.93-74.463c26.743-46.146,73.943-73.416,130.051-73.416,28.317,0,54.013,6.292,76.565,18.876,45.1,25.168,71.321,72.368,71.321,129q0,40.114-18.876,73.943c-25.7,45.625-76.038,74.463-129,74.463Zm0-277.93a127.089,127.089,0,0,0-65.029,17.308c-40.381,23.073-65.029,64.5-65.029,112.222a122.155,122.155,0,0,0,17.828,64.5c23.073,40.381,63.974,65.549,112.222,65.549,23.6,0,45.1-5.771,65.029-17.829,39.327-23.073,64.5-66.076,64.5-112.222A128.955,128.955,0,0,0,889.9,169.911c-23.073-39.854-66.6-63.974-112.222-63.974Zm0,243.847a113.673,113.673,0,0,1-57.162-15.206c-35.136-20.451-57.682-59.257-57.682-99.111a112.265,112.265,0,0,1,15.733-57.682c20.451-35.657,56.635-56.108,99.111-56.108a111.789,111.789,0,0,1,56.635,15.206c35.136,20.451,55.587,56.108,55.587,98.59,0,20.978-4.717,39.854-14.159,57.162a112.443,112.443,0,0,1-98.063,57.162Zm0-209.238a93.567,93.567,0,0,0-47.193,12.584c-29.365,17.308-48.248,48.248-48.248,82.33a90.351,90.351,0,0,0,12.584,46.673c16.781,29.365,47.194,47.193,82.857,47.193,17.308,0,33.562-4.2,47.721-12.584,28.844-16.781,46.146-47.721,46.146-81.282a94.248,94.248,0,0,0-93.867-94.914ZM1103.078,40.9c0-17.308-6.819-29.892-20.451-37.232-4.717-2.622-9.962-3.67-16.254-3.67a34.941,34.941,0,0,0-34.609,34.609c0,18.356,13.111,33.035,31.467,34.609h3.149l14.159-2.622L1071.1,81.282c-5.771,8.387-14.686,18.876-27.27,31.467l-11.536-6.292c13.111-13.111,21.5-22.025,25.168-27.27a39.033,39.033,0,0,1-15.206-6.292c-5.771,7.34-14.686,16.781-27.27,28.844l-6.819,6.292,36.711,25.168,4.717-4.717c35.657-33.562,53.492-62.927,53.492-87.574Zm-27.27,10.489a15.371,15.371,0,0,1-8.387,2.1H1064.8c-9.962-.527-17.308-8.914-17.308-18.876a18.8,18.8,0,0,1,18.876-18.876,20.065,20.065,0,0,1,9.962,2.622l.527.527c4.2,2.1,8.914,9.441,8.914,15.733,0,6.819-3.67,14.159-9.962,16.781Zm-9.441-25.7a9.192,9.192,0,0,0-8.914,8.914,9.192,9.192,0,0,0,8.914,8.914c5.771,0,8.914-4.2,8.914-8.914A9.192,9.192,0,0,0,1066.366,25.7ZM1301.56,401.168h-9.441l-4.2-14.159-76.559-245.942L1190.385,70.8h16.254l81.81,266.393,8.387,28.317h3.149l9.962-24.648-9.962-30.413L1220.8,52.444H1164.69l113.27,367.079h36.184l47.72-113.8,9.962-24.121,13.632-34.089-9.962-23.6-14.158,33.562-9.962,24.121Zm-63.974-348.73,81.282,267.447,57.682-137.917,103.828,238.076h20.451l-124.286-285.8L1320.956,262.2,1257.5,52.445h-19.917Zm266.393,162.038,44.051-143.689h53.492L1596.8,85.993l-53.492,175.149L1512.9,360.253l-129-297.86h-13.632l-55.587,129,8.387,27.79,54.012-124.806,16.781,38.279,117.466,272.165,4.718,10.489L1626.689,52.438H1533.87l-40.9,135.822Zm3.149,45.625-11.009-26.222L1421.655,62.4H1401.2l109.073,251.714,70.266-229.162h-19.93Z" fill="#2c9490"/>
</svg>
